<?xml version="1.0" encoding="UTF-8"?>
<svg id="Livello_1" data-name="Livello 1" xmlns="http://www.w3.org/2000/svg" viewBox="0 0 127.65 36.84">
  <defs>
    <style>
      .cls-1 {
        fill: #fff;
      }

      .cls-2 {
        fill: gray;
      }
    </style>
  </defs>
  <g>
    <path class="cls-2" d="M31.54,2.57l-1.82,8.59h-13.63l-1.2,5.62h12.87l-1.82,8.59h-12.87l-2.4,11.47H0L7.25,2.57h24.29Z"/>
    <path class="cls-2" d="M46.99,2.57l-5.28,24.91h14.21l-2.59,9.36h-24.48L36.1,2.57h10.9Z"/>
    <path class="cls-2" d="M87.7,28.06l-2.4,8.78h-27.41l1.63-7.78,16.99-17.71h-13.39l1.87-8.78h26.69l-1.63,7.82-16.99,17.67h14.64Z"/>
    <path class="cls-2" d="M102.34,31.32l-2.64,5.52h-10.75L107.23,2.57h13.44l3.89,34.27h-10.99l-.34-5.52h-10.9ZM112.71,22.83l-.72-11.38-5.52,11.38h6.24Z"/>
  </g>
  <g>
    <path class="cls-1" d="M34.63,0l-1.82,8.59h-13.63l-1.2,5.62h12.87l-1.82,8.59h-12.87l-2.4,11.47H3.09L10.34,0h24.29Z"/>
    <path class="cls-1" d="M50.08,0l-5.28,24.91h14.21l-2.59,9.36h-24.48L39.19,0h10.9Z"/>
    <path class="cls-1" d="M90.79,25.49l-2.4,8.78h-27.41l1.63-7.78,16.99-17.71h-13.39l1.87-8.78h26.69l-1.63,7.82-16.99,17.67h14.64Z"/>
    <path class="cls-1" d="M105.42,28.75l-2.64,5.52h-10.75L110.32,0h13.44l3.89,34.27h-10.99l-.34-5.52h-10.9ZM115.79,20.26l-.72-11.38-5.52,11.38h6.24Z"/>
  </g>
</svg>